# Blender v2.90.0 OBJ File: 'barrière.blend'
# www.blender.org
mtllib barrière1.mtl
o barrière_02_Cylinder.001
v -0.060495 0.033954 1.289948
v -0.060495 0.845668 1.289948
v -0.034148 0.033954 1.300194
v -0.034148 0.845668 1.300194
v -0.011972 0.033954 1.319742
v -0.011972 0.845668 1.319742
v -0.011972 0.033954 1.345617
v -0.011972 0.845668 1.345617
v -0.011972 0.033954 1.373878
v -0.011972 0.845668 1.373878
v -0.011972 0.033954 1.400225
v -0.011972 0.845668 1.400225
v -0.031520 0.033954 1.420645
v -0.031520 0.845668 1.420645
v -0.057395 0.033954 1.432030
v -0.057395 0.845668 1.432030
v -0.085656 0.033954 1.432647
v -0.085656 0.845668 1.432647
v -0.112003 0.033954 1.422401
v -0.112003 0.845668 1.422401
v -0.132423 0.033954 1.402853
v -0.132423 0.845668 1.402853
v -0.143808 0.033954 1.376979
v -0.143808 0.845668 1.376979
v -0.144425 0.033954 1.348717
v -0.144425 0.845668 1.348717
v -0.134179 0.033954 1.322370
v -0.134179 0.845668 1.322370
v -0.114631 0.033954 1.301950
v -0.114631 0.845668 1.301950
v -0.088757 0.033954 1.290565
v -0.088757 0.845668 1.290565
v 0.015666 0.724192 1.691193
v 0.015666 0.536402 1.682600
v 0.015666 0.868637 -1.465504
v 0.015666 0.680847 -1.474097
v -0.015666 0.724192 1.691193
v -0.015665 0.536402 1.682600
v -0.015666 0.868637 -1.465504
v -0.015666 0.680847 -1.474097
v 0.015666 0.381729 1.690175
v 0.015666 0.193785 1.686222
v 0.015666 0.448187 -1.469126
v 0.015666 0.260242 -1.473079
v -0.015666 0.381729 1.690175
v -0.015666 0.193785 1.686222
v -0.015666 0.448187 -1.469126
v -0.015666 0.260242 -1.473079
v -0.060495 0.033954 -1.055635
v -0.060495 0.845668 -1.055635
v -0.034148 0.033954 -1.045389
v -0.034148 0.845668 -1.045389
v -0.011972 0.033954 -1.025841
v -0.011972 0.845668 -1.025841
v -0.011972 0.033954 -0.999967
v -0.011972 0.845668 -0.999967
v -0.011972 0.033954 -0.971704
v -0.011972 0.845668 -0.971704
v -0.011972 0.033954 -0.945358
v -0.011972 0.845668 -0.945358
v -0.031520 0.033954 -0.924938
v -0.031520 0.845668 -0.924938
v -0.057395 0.033954 -0.913553
v -0.057395 0.845668 -0.913553
v -0.085656 0.033954 -0.912936
v -0.085656 0.845668 -0.912936
v -0.112003 0.033954 -0.923182
v -0.112003 0.845668 -0.923182
v -0.132423 0.033954 -0.942730
v -0.132423 0.845668 -0.942730
v -0.143808 0.033954 -0.968604
v -0.143808 0.845668 -0.968604
v -0.144425 0.033954 -0.996866
v -0.144425 0.845668 -0.996866
v -0.134179 0.033954 -1.023213
v -0.134179 0.845668 -1.023213
v -0.114631 0.033954 -1.043633
v -0.114631 0.845668 -1.043633
v -0.088757 0.033954 -1.055018
v -0.088757 0.845668 -1.055018
vt 0.444225 0.272234
vt 0.915379 0.272234
vt 0.915379 0.288389
vt 0.444225 0.288389
vt 0.915379 0.305284
vt 0.444225 0.305284
vt 0.444225 0.761119
vt 0.915379 0.761119
vt 0.915379 0.769733
vt 0.444225 0.769733
vt 0.915379 0.779143
vt 0.444225 0.779142
vt 0.915379 0.787914
vt 0.444225 0.787914
vt 0.915379 0.804007
vt 0.444225 0.804007
vt 0.915379 0.820100
vt 0.444225 0.820100
vt 0.444226 0.410490
vt 0.915379 0.410491
vt 0.915379 0.425650
vt 0.444225 0.425650
vt 0.915379 0.442058
vt 0.444225 0.442058
vt 0.915379 0.457218
vt 0.444225 0.457217
vt 0.915379 0.468820
vt 0.444225 0.468820
vt 0.444225 0.527149
vt 0.915379 0.527149
vt 0.915379 0.542309
vt 0.444225 0.542309
vt 0.915379 0.558717
vt 0.444225 0.558717
vt 0.915379 0.573876
vt 0.444225 0.573876
vt 0.992261 0.815072
vt 0.998208 0.830365
vt 0.997850 0.846769
vt 0.991241 0.861788
vt 0.979388 0.873134
vt 0.964096 0.879081
vt 0.947691 0.878723
vt 0.932673 0.872115
vt 0.921326 0.860262
vt 0.915379 0.844970
vt 0.915737 0.828565
vt 0.922345 0.813546
vt 0.934198 0.802200
vt 0.949491 0.802200
vt 0.965895 0.802200
vt 0.980914 0.802200
vt 0.915379 0.585479
vt 0.444225 0.585479
vt 0.444225 0.258406
vt 0.915379 0.258406
vt 0.915379 0.445957
vt 0.921326 0.430664
vt 0.932673 0.417792
vt 0.947691 0.417792
vt 0.964096 0.417792
vt 0.979388 0.417792
vt 0.991241 0.429139
vt 0.997850 0.444158
vt 0.998208 0.460562
vt 0.992261 0.475855
vt 0.980914 0.487707
vt 0.965895 0.494316
vt 0.949491 0.494674
vt 0.934198 0.488727
vt 0.922345 0.477380
vt 0.915737 0.462361
vt 0.000000 0.000000
vt 0.059489 0.000000
vt 0.059489 1.000000
vt 0.000000 1.000000
vt 0.426341 0.297447
vt 0.426341 0.237957
vt 0.436256 0.237957
vt 0.436256 0.297447
vt 0.178468 0.000000
vt 0.237957 0.000000
vt 0.237957 1.000000
vt 0.178468 1.000000
vt 0.416426 0.237957
vt 0.416426 0.178468
vt 0.426341 0.178468
vt 0.426341 0.237957
vt 0.366851 0.000000
vt 0.376766 0.000000
vt 0.376766 1.000000
vt 0.366851 1.000000
vt 0.386681 0.000000
vt 0.396596 0.000000
vt 0.396596 1.000000
vt 0.386681 1.000000
vt 0.000000 0.000000
vt 0.059489 0.000000
vt 0.059489 1.000000
vt 0.000000 1.000000
vt 0.426341 0.297447
vt 0.426341 0.237957
vt 0.436256 0.237957
vt 0.436256 0.297447
vt 0.178468 0.000000
vt 0.237957 0.000000
vt 0.237957 1.000000
vt 0.178468 1.000000
vt 0.416426 0.237957
vt 0.416426 0.178468
vt 0.426341 0.178468
vt 0.426341 0.237957
vt 0.366851 0.000000
vt 0.376766 0.000000
vt 0.376766 1.000000
vt 0.366851 1.000000
vt 0.386681 0.000000
vt 0.396596 0.000000
vt 0.396596 1.000000
vt 0.386681 1.000000
vt 0.444225 0.272234
vt 0.915379 0.272234
vt 0.915379 0.288389
vt 0.444225 0.288389
vt 0.915379 0.305284
vt 0.444225 0.305284
vt 0.444225 0.761119
vt 0.915379 0.761119
vt 0.915379 0.769733
vt 0.444225 0.769733
vt 0.915379 0.779143
vt 0.444225 0.779142
vt 0.915379 0.787914
vt 0.444225 0.787914
vt 0.915379 0.804007
vt 0.444225 0.804007
vt 0.915379 0.820100
vt 0.444225 0.820100
vt 0.444226 0.410490
vt 0.915379 0.410491
vt 0.915379 0.425650
vt 0.444225 0.425650
vt 0.915379 0.442058
vt 0.444225 0.442058
vt 0.915379 0.457218
vt 0.444225 0.457217
vt 0.915379 0.468820
vt 0.444225 0.468820
vt 0.444225 0.527149
vt 0.915379 0.527149
vt 0.915379 0.542309
vt 0.444225 0.542309
vt 0.915379 0.558717
vt 0.444225 0.558717
vt 0.915379 0.573876
vt 0.444225 0.573876
vt 0.992261 0.815072
vt 0.998208 0.830365
vt 0.997850 0.846769
vt 0.991241 0.861788
vt 0.979388 0.873134
vt 0.964096 0.879081
vt 0.947691 0.878723
vt 0.932673 0.872115
vt 0.921326 0.860262
vt 0.915379 0.844970
vt 0.915737 0.828565
vt 0.922345 0.813546
vt 0.934198 0.802200
vt 0.949491 0.802200
vt 0.965895 0.802200
vt 0.980914 0.802200
vt 0.915379 0.585479
vt 0.444225 0.585479
vt 0.444225 0.258406
vt 0.915379 0.258406
vt 0.915379 0.445957
vt 0.921326 0.430664
vt 0.932673 0.417792
vt 0.947691 0.417792
vt 0.964096 0.417792
vt 0.979388 0.417792
vt 0.991241 0.429139
vt 0.997850 0.444158
vt 0.998208 0.460562
vt 0.992261 0.475855
vt 0.980914 0.487707
vt 0.965895 0.494316
vt 0.949491 0.494674
vt 0.934198 0.488727
vt 0.922345 0.477380
vt 0.915737 0.462361
vn 0.3624 0.0000 -0.9320
vn 0.6613 0.0000 -0.7502
vn 1.0000 0.0000 0.0000
vn 0.7224 0.0000 0.6915
vn 0.4027 0.0000 0.9153
vn 0.0218 0.0000 0.9998
vn -0.3624 0.0000 0.9320
vn -0.6915 0.0000 0.7224
vn -0.9153 0.0000 0.4027
vn -0.9998 0.0000 0.0218
vn -0.9320 0.0000 -0.3624
vn -0.7224 0.0000 -0.6915
vn 0.0000 1.0000 0.0000
vn -0.4027 0.0000 -0.9153
vn -0.0218 0.0000 -0.9998
vn 0.0000 -1.0000 -0.0000
vn 0.0000 0.0457 -0.9990
vn -1.0000 -0.0000 0.0000
vn -0.0000 -0.0457 0.9990
vn -0.0000 0.9990 0.0457
vn 0.0000 -0.9990 -0.0457
vn -0.0000 0.0210 -0.9998
vn 0.0000 -0.0210 0.9998
vn 0.0000 0.9998 0.0210
vn -0.0000 -0.9998 -0.0210
usemtl barrière
s off
f 1/1/1 2/2/1 4/3/1 3/4/1
f 3/4/2 4/3/2 6/5/2 5/6/2
f 5/7/3 6/8/3 8/9/3 7/10/3
f 7/10/3 8/9/3 10/11/3 9/12/3
f 9/12/3 10/11/3 12/13/3 11/14/3
f 11/14/4 12/13/4 14/15/4 13/16/4
f 13/16/5 14/15/5 16/17/5 15/18/5
f 15/19/6 16/20/6 18/21/6 17/22/6
f 17/22/7 18/21/7 20/23/7 19/24/7
f 19/24/8 20/23/8 22/25/8 21/26/8
f 21/26/9 22/25/9 24/27/9 23/28/9
f 23/29/10 24/30/10 26/31/10 25/32/10
f 25/32/11 26/31/11 28/33/11 27/34/11
f 27/34/12 28/33/12 30/35/12 29/36/12
f 4/37/13 2/38/13 32/39/13 30/40/13 28/41/13 26/42/13 24/43/13 22/44/13 20/45/13 18/46/13 16/47/13 14/48/13 12/49/13 10/50/13 8/51/13 6/52/13
f 29/36/14 30/35/14 32/53/14 31/54/14
f 31/55/15 32/56/15 2/2/15 1/1/15
f 1/57/16 3/58/16 5/59/16 7/60/16 9/61/16 11/62/16 13/63/16 15/64/16 17/65/16 19/66/16 21/67/16 23/68/16 25/69/16 27/70/16 29/71/16 31/72/16
f 33/73/3 34/74/3 36/75/3 35/76/3
f 35/77/17 36/78/17 40/79/17 39/80/17
f 39/81/18 40/82/18 38/83/18 37/84/18
f 37/85/19 38/86/19 34/87/19 33/88/19
f 35/89/20 39/90/20 37/91/20 33/92/20
f 40/93/21 36/94/21 34/95/21 38/96/21
f 41/97/3 42/98/3 44/99/3 43/100/3
f 43/101/22 44/102/22 48/103/22 47/104/22
f 47/105/18 48/106/18 46/107/18 45/108/18
f 45/109/23 46/110/23 42/111/23 41/112/23
f 43/113/24 47/114/24 45/115/24 41/116/24
f 48/117/25 44/118/25 42/119/25 46/120/25
f 49/121/1 50/122/1 52/123/1 51/124/1
f 51/124/2 52/123/2 54/125/2 53/126/2
f 53/127/3 54/128/3 56/129/3 55/130/3
f 55/130/3 56/129/3 58/131/3 57/132/3
f 57/132/3 58/131/3 60/133/3 59/134/3
f 59/134/4 60/133/4 62/135/4 61/136/4
f 61/136/5 62/135/5 64/137/5 63/138/5
f 63/139/6 64/140/6 66/141/6 65/142/6
f 65/142/7 66/141/7 68/143/7 67/144/7
f 67/144/8 68/143/8 70/145/8 69/146/8
f 69/146/9 70/145/9 72/147/9 71/148/9
f 71/149/10 72/150/10 74/151/10 73/152/10
f 73/152/11 74/151/11 76/153/11 75/154/11
f 75/154/12 76/153/12 78/155/12 77/156/12
f 52/157/13 50/158/13 80/159/13 78/160/13 76/161/13 74/162/13 72/163/13 70/164/13 68/165/13 66/166/13 64/167/13 62/168/13 60/169/13 58/170/13 56/171/13 54/172/13
f 77/156/14 78/155/14 80/173/14 79/174/14
f 79/175/15 80/176/15 50/122/15 49/121/15
f 49/177/16 51/178/16 53/179/16 55/180/16 57/181/16 59/182/16 61/183/16 63/184/16 65/185/16 67/186/16 69/187/16 71/188/16 73/189/16 75/190/16 77/191/16 79/192/16
