# Blender v2.90.0 OBJ File: 'barrière.blend'
# www.blender.org
mtllib barrière3.mtl
o barrière_03_Cylinder.002
v 0.039584 0.033954 -1.147714
v 0.039584 0.845668 -1.147714
v 0.065931 0.033954 -1.137468
v 0.065931 0.845668 -1.137468
v 0.088107 0.033954 -1.117920
v 0.088107 0.845668 -1.117920
v 0.088107 0.033954 -1.092045
v 0.088107 0.845668 -1.092045
v 0.088107 0.033954 -1.063784
v 0.088107 0.845668 -1.063784
v 0.088107 0.033954 -1.037437
v 0.088107 0.845668 -1.037437
v 0.068559 0.033954 -1.017017
v 0.068559 0.845668 -1.017017
v 0.042684 0.033954 -1.005632
v 0.042684 0.845668 -1.005632
v 0.014422 0.033954 -1.005015
v 0.014422 0.845668 -1.005015
v -0.011924 0.033954 -1.015261
v -0.011924 0.845668 -1.015261
v -0.032344 0.033954 -1.034809
v -0.032344 0.845668 -1.034809
v -0.043729 0.033954 -1.060683
v -0.043729 0.845668 -1.060683
v -0.044346 0.033954 -1.088945
v -0.044346 0.845668 -1.088945
v -0.034101 0.033954 -1.115292
v -0.034101 0.845668 -1.115292
v -0.014552 0.033954 -1.135712
v -0.014552 0.845668 -1.135712
v 0.011322 0.033954 -1.147097
v 0.011322 0.845668 -1.147097
v 0.115744 0.459566 1.596254
v 0.115744 0.271580 1.596678
v 0.115744 0.452430 -1.563739
v 0.115744 0.264444 -1.563314
v 0.084413 0.459566 1.596253
v 0.084413 0.271580 1.596678
v 0.084413 0.452430 -1.563739
v 0.084413 0.264444 -1.563314
v 0.115744 0.811387 1.592991
v 0.115744 0.623483 1.598561
v 0.115744 0.717750 -1.565622
v 0.115744 0.529846 -1.560051
v 0.084413 0.811387 1.592991
v 0.084413 0.623483 1.598561
v 0.084413 0.717750 -1.565622
v 0.084413 0.529846 -1.560051
v 0.039584 0.033954 1.197870
v 0.039584 0.845668 1.197870
v 0.065931 0.033954 1.208115
v 0.065931 0.845668 1.208115
v 0.088107 0.033954 1.227664
v 0.088107 0.845668 1.227664
v 0.088107 0.033954 1.253538
v 0.088107 0.845668 1.253538
v 0.088107 0.033954 1.281800
v 0.088107 0.845668 1.281800
v 0.088107 0.033954 1.308147
v 0.088107 0.845668 1.308147
v 0.068559 0.033954 1.328567
v 0.068559 0.845668 1.328567
v 0.042684 0.033954 1.339952
v 0.042684 0.845668 1.339952
v 0.014422 0.033954 1.340569
v 0.014422 0.845668 1.340569
v -0.011924 0.033954 1.330323
v -0.011924 0.845668 1.330323
v -0.032344 0.033954 1.310775
v -0.032344 0.845668 1.310775
v -0.043729 0.033954 1.284900
v -0.043729 0.845668 1.284900
v -0.044346 0.033954 1.256638
v -0.044346 0.845668 1.256638
v -0.034101 0.033954 1.230292
v -0.034101 0.845668 1.230292
v -0.014552 0.033954 1.209872
v -0.014552 0.845668 1.209872
v 0.011322 0.033954 1.198486
v 0.011322 0.845668 1.198486
vt 0.444225 0.225356
vt 0.915379 0.225356
vt 0.915379 0.241511
vt 0.444225 0.241511
vt 0.915379 0.258406
vt 0.444225 0.258406
vt 0.444225 0.702138
vt 0.915379 0.702138
vt 0.915379 0.710752
vt 0.444225 0.710752
vt 0.915379 0.720161
vt 0.444225 0.720161
vt 0.915379 0.728933
vt 0.444225 0.728933
vt 0.915379 0.745026
vt 0.444225 0.745026
vt 0.915379 0.761119
vt 0.444225 0.761119
vt 0.444225 0.352161
vt 0.915379 0.352161
vt 0.915379 0.367320
vt 0.444226 0.367320
vt 0.915379 0.383729
vt 0.444226 0.383729
vt 0.915379 0.398888
vt 0.444226 0.398888
vt 0.915379 0.410491
vt 0.444226 0.410490
vt 0.444225 0.585479
vt 0.915379 0.585479
vt 0.915379 0.600638
vt 0.444225 0.600638
vt 0.915379 0.617046
vt 0.444225 0.617046
vt 0.915379 0.632206
vt 0.444225 0.632206
vt 0.992261 0.584427
vt 0.998208 0.599720
vt 0.997850 0.616125
vt 0.991241 0.631143
vt 0.979388 0.642490
vt 0.964096 0.648437
vt 0.947691 0.648079
vt 0.932673 0.641471
vt 0.921326 0.629618
vt 0.915379 0.614325
vt 0.915737 0.597921
vt 0.922345 0.582902
vt 0.934198 0.571555
vt 0.949491 0.571555
vt 0.965895 0.571555
vt 0.980914 0.571555
vt 0.915379 0.643808
vt 0.444225 0.643808
vt 0.444225 0.211529
vt 0.915379 0.211529
vt 0.915379 0.522839
vt 0.921326 0.507546
vt 0.932673 0.494674
vt 0.947691 0.494674
vt 0.964096 0.494674
vt 0.979388 0.494674
vt 0.991241 0.506020
vt 0.997850 0.521039
vt 0.998208 0.537444
vt 0.992261 0.552736
vt 0.980914 0.564589
vt 0.965895 0.571197
vt 0.949491 0.571555
vt 0.934198 0.565608
vt 0.922345 0.554262
vt 0.915737 0.539243
vt 0.118979 0.000000
vt 0.178468 0.000000
vt 0.178468 1.000000
vt 0.118979 1.000000
vt 0.416426 0.059489
vt 0.416426 0.000000
vt 0.426341 0.000000
vt 0.426341 0.059489
vt 0.237957 0.000000
vt 0.297447 0.000000
vt 0.297447 1.000000
vt 0.237957 1.000000
vt 0.416426 0.178468
vt 0.416426 0.118979
vt 0.426341 0.118979
vt 0.426341 0.178468
vt 0.376766 0.000000
vt 0.386681 0.000000
vt 0.386681 1.000000
vt 0.376766 1.000000
vt 0.356936 0.000000
vt 0.366851 0.000000
vt 0.366851 1.000000
vt 0.356936 1.000000
vt 0.118979 0.000000
vt 0.178468 0.000000
vt 0.178468 1.000000
vt 0.118979 1.000000
vt 0.416426 0.059489
vt 0.416426 0.000000
vt 0.426341 0.000000
vt 0.426341 0.059489
vt 0.237957 0.000000
vt 0.297447 0.000000
vt 0.297447 1.000000
vt 0.237957 1.000000
vt 0.416426 0.178468
vt 0.416426 0.118979
vt 0.426341 0.118979
vt 0.426341 0.178468
vt 0.376766 0.000000
vt 0.386681 0.000000
vt 0.386681 1.000000
vt 0.376766 1.000000
vt 0.356936 0.000000
vt 0.366851 0.000000
vt 0.366851 1.000000
vt 0.356936 1.000000
vt 0.444225 0.225356
vt 0.915379 0.225356
vt 0.915379 0.241511
vt 0.444225 0.241511
vt 0.915379 0.258406
vt 0.444225 0.258406
vt 0.444225 0.702138
vt 0.915379 0.702138
vt 0.915379 0.710752
vt 0.444225 0.710752
vt 0.915379 0.720161
vt 0.444225 0.720161
vt 0.915379 0.728933
vt 0.444225 0.728933
vt 0.915379 0.745026
vt 0.444225 0.745026
vt 0.915379 0.761119
vt 0.444225 0.761119
vt 0.444225 0.352161
vt 0.915379 0.352161
vt 0.915379 0.367320
vt 0.444226 0.367320
vt 0.915379 0.383729
vt 0.444226 0.383729
vt 0.915379 0.398888
vt 0.444226 0.398888
vt 0.915379 0.410491
vt 0.444226 0.410490
vt 0.444225 0.585479
vt 0.915379 0.585479
vt 0.915379 0.600638
vt 0.444225 0.600638
vt 0.915379 0.617046
vt 0.444225 0.617046
vt 0.915379 0.632206
vt 0.444225 0.632206
vt 0.992261 0.584427
vt 0.998208 0.599720
vt 0.997850 0.616125
vt 0.991241 0.631143
vt 0.979388 0.642490
vt 0.964096 0.648437
vt 0.947691 0.648079
vt 0.932673 0.641471
vt 0.921326 0.629618
vt 0.915379 0.614325
vt 0.915737 0.597921
vt 0.922345 0.582902
vt 0.934198 0.571555
vt 0.949491 0.571555
vt 0.965895 0.571555
vt 0.980914 0.571555
vt 0.915379 0.643808
vt 0.444225 0.643808
vt 0.444225 0.211529
vt 0.915379 0.211529
vt 0.915379 0.522839
vt 0.921326 0.507546
vt 0.932673 0.494674
vt 0.947691 0.494674
vt 0.964096 0.494674
vt 0.979388 0.494674
vt 0.991241 0.506020
vt 0.997850 0.521039
vt 0.998208 0.537444
vt 0.992261 0.552736
vt 0.980914 0.564589
vt 0.965895 0.571197
vt 0.949491 0.571555
vt 0.934198 0.565608
vt 0.922345 0.554262
vt 0.915737 0.539243
vn 0.3624 0.0000 -0.9320
vn 0.6613 0.0000 -0.7502
vn 1.0000 0.0000 -0.0000
vn 0.7224 0.0000 0.6915
vn 0.4027 0.0000 0.9153
vn 0.0218 0.0000 0.9998
vn -0.3624 0.0000 0.9320
vn -0.6915 0.0000 0.7224
vn -0.9153 0.0000 0.4027
vn -0.9998 0.0000 0.0218
vn -0.9320 0.0000 -0.3624
vn -0.7224 0.0000 -0.6915
vn 0.0000 1.0000 0.0000
vn -0.4027 0.0000 -0.9153
vn -0.0218 0.0000 -0.9998
vn 0.0000 -1.0000 -0.0000
vn 0.0000 -0.0023 -1.0000
vn -1.0000 0.0000 0.0000
vn -0.0000 0.0023 1.0000
vn 0.0000 1.0000 -0.0023
vn -0.0000 -1.0000 0.0023
vn 0.0000 -0.0296 -0.9996
vn -0.0000 0.0296 0.9996
vn 0.0000 0.9996 -0.0296
vn -0.0000 -0.9996 0.0296
vn -0.4028 0.0000 -0.9153
usemtl barrière
s off
f 1/1/1 2/2/1 4/3/1 3/4/1
f 3/4/2 4/3/2 6/5/2 5/6/2
f 5/7/3 6/8/3 8/9/3 7/10/3
f 7/10/3 8/9/3 10/11/3 9/12/3
f 9/12/3 10/11/3 12/13/3 11/14/3
f 11/14/4 12/13/4 14/15/4 13/16/4
f 13/16/5 14/15/5 16/17/5 15/18/5
f 15/19/6 16/20/6 18/21/6 17/22/6
f 17/22/7 18/21/7 20/23/7 19/24/7
f 19/24/8 20/23/8 22/25/8 21/26/8
f 21/26/9 22/25/9 24/27/9 23/28/9
f 23/29/10 24/30/10 26/31/10 25/32/10
f 25/32/11 26/31/11 28/33/11 27/34/11
f 27/34/12 28/33/12 30/35/12 29/36/12
f 4/37/13 2/38/13 32/39/13 30/40/13 28/41/13 26/42/13 24/43/13 22/44/13 20/45/13 18/46/13 16/47/13 14/48/13 12/49/13 10/50/13 8/51/13 6/52/13
f 29/36/14 30/35/14 32/53/14 31/54/14
f 31/55/15 32/56/15 2/2/15 1/1/15
f 1/57/16 3/58/16 5/59/16 7/60/16 9/61/16 11/62/16 13/63/16 15/64/16 17/65/16 19/66/16 21/67/16 23/68/16 25/69/16 27/70/16 29/71/16 31/72/16
f 33/73/3 34/74/3 36/75/3 35/76/3
f 35/77/17 36/78/17 40/79/17 39/80/17
f 39/81/18 40/82/18 38/83/18 37/84/18
f 37/85/19 38/86/19 34/87/19 33/88/19
f 35/89/20 39/90/20 37/91/20 33/92/20
f 40/93/21 36/94/21 34/95/21 38/96/21
f 41/97/3 42/98/3 44/99/3 43/100/3
f 43/101/22 44/102/22 48/103/22 47/104/22
f 47/105/18 48/106/18 46/107/18 45/108/18
f 45/109/23 46/110/23 42/111/23 41/112/23
f 43/113/24 47/114/24 45/115/24 41/116/24
f 48/117/25 44/118/25 42/119/25 46/120/25
f 49/121/1 50/122/1 52/123/1 51/124/1
f 51/124/2 52/123/2 54/125/2 53/126/2
f 53/127/3 54/128/3 56/129/3 55/130/3
f 55/130/3 56/129/3 58/131/3 57/132/3
f 57/132/3 58/131/3 60/133/3 59/134/3
f 59/134/4 60/133/4 62/135/4 61/136/4
f 61/136/5 62/135/5 64/137/5 63/138/5
f 63/139/6 64/140/6 66/141/6 65/142/6
f 65/142/7 66/141/7 68/143/7 67/144/7
f 67/144/8 68/143/8 70/145/8 69/146/8
f 69/146/9 70/145/9 72/147/9 71/148/9
f 71/149/10 72/150/10 74/151/10 73/152/10
f 73/152/11 74/151/11 76/153/11 75/154/11
f 75/154/12 76/153/12 78/155/12 77/156/12
f 52/157/13 50/158/13 80/159/13 78/160/13 76/161/13 74/162/13 72/163/13 70/164/13 68/165/13 66/166/13 64/167/13 62/168/13 60/169/13 58/170/13 56/171/13 54/172/13
f 77/156/26 78/155/26 80/173/26 79/174/26
f 79/175/15 80/176/15 50/122/15 49/121/15
f 49/177/16 51/178/16 53/179/16 55/180/16 57/181/16 59/182/16 61/183/16 63/184/16 65/185/16 67/186/16 69/187/16 71/188/16 73/189/16 75/190/16 77/191/16 79/192/16
